<svg width="847" height="152" viewBox="0 0 847 152" fill="none" xmlns="http://www.w3.org/2000/svg">
<path d="M135.8 122.6L140.2 127C145.4 132.2 145.4 140.6 140.2 146C137.6 148.6 134.2 149.8 130.8 149.8C127.4 149.8 123.8 148.6 121.2 146L115.8 140.6C104 148 90.2 152 75.8 152C55.6 152 36.6 144 22.2 129.6C7.8 115.4 3.57628e-07 96.2 3.57628e-07 76C3.57628e-07 55.6 7.8 36.6 22.2 22.2C24 20.4 26 18.6 28 17C30.6 14.8 33.2 13 36 11.2C37 10.6 37.8 10.2 38.8 9.59999C41 8.4 43.4 7.19999 46 6.19999C47 5.6 47.8 5.4 48.8 4.99999C50.2 4.39999 51.6 3.99999 53 3.39999C55.2 2.8 57.6 2.19999 59.8 1.59999C60.8 1.39999 61.6 1.39999 62.6 1.19999C67 0.399992 71.4 -2.86102e-06 75.8 -2.86102e-06C80.8 -2.86102e-06 85.6 0.399992 90.4 1.39999C96.8 2.59999 103 4.6 109 7.59999C116.4 11.2 123.4 16 129.6 22.2C144 36.6 151.8 55.6 151.8 76C151.8 93 146.2 109.2 135.8 122.6ZM116.6 103.4C129.6 84.2 127.6 58 110.6 41.2C101 31.6 88.4 26.8 75.8 26.8C63.4 26.8 50.8 31.6 41.2 41.2C31.8 50.4 26.8 62.8 26.8 76C26.8 89 31.8 101.4 41.2 110.6C56 125.6 78 128.8 96 120.8L75.2 99.8C70 94.6 70 86 75.2 80.8C80.4 75.6 89 75.6 94.2 80.8L116.6 103.4ZM286.889 3.99999C294.289 3.99999 300.289 9.99999 300.289 17.4V92.8C300.289 123.8 271.689 149.8 237.889 149.8C204.089 149.8 175.689 123.8 175.689 92.8V17.4C175.689 9.99999 181.689 3.99999 189.089 3.99999C196.489 3.99999 202.489 9.99999 202.489 17.4V92.8C202.489 109 218.889 123 237.889 123C255.889 123 273.489 109.4 273.489 92.8V17.4C273.489 9.99999 279.489 3.99999 286.889 3.99999Z" fill="#C178FF"/>
<path d="M456.973 127.6C460.373 134.2 457.773 142.2 451.173 145.6C444.573 149 436.373 146.2 433.173 139.6L423.773 121.2H347.773L338.373 139.6C336.173 144.4 331.373 147 326.573 147C316.573 147 309.973 136.4 314.573 127.6L373.773 10.8C373.973 10.6 373.973 10.4 374.173 10.2C374.173 9.99999 374.373 9.99999 374.373 9.79999C374.973 8.99999 375.573 8.2 376.373 7.4C376.373 7.19999 376.573 7.19999 376.773 6.99999C376.973 6.79999 377.173 6.6 377.373 6.4C377.573 6.4 377.773 6.19999 377.973 5.99999C378.173 5.79999 378.373 5.79999 378.573 5.6C379.373 4.99999 380.373 4.6 381.373 4.19999C381.573 4.19999 381.573 4.19999 381.773 4.19999C381.973 3.99999 382.373 3.99999 382.573 3.8C382.973 3.8 383.173 3.8 383.373 3.8C383.573 3.6 383.773 3.6 383.973 3.6C384.573 3.6 385.173 3.6 385.573 3.6C385.773 3.39999 385.773 3.39999 385.773 3.39999L385.973 3.6C386.373 3.6 386.973 3.6 387.373 3.6C387.373 3.6 387.573 3.6 387.773 3.6C388.173 3.8 388.573 3.8 389.173 3.99999H389.373C389.773 4.19999 390.373 4.19999 390.773 4.39999C390.973 4.6 391.173 4.6 391.173 4.6C391.373 4.79999 391.573 4.79999 391.773 4.99999C391.973 4.99999 392.173 4.99999 392.173 5.19999C392.373 5.19999 392.573 5.4 392.573 5.4C392.973 5.6 393.373 5.79999 393.773 6.19999C395.573 7.59999 396.973 9.2 397.973 11.2C397.773 11.2 397.773 11 397.773 11L456.973 127.6ZM361.573 94.4H409.973L385.773 46.6L361.573 94.4ZM561.07 120.2C568.47 120.2 574.47 126.2 574.47 133.6C574.47 141 568.47 147 561.07 147H492.07C489.27 147 486.67 146.2 484.47 144.8C481.27 142.6 479.07 139.2 478.67 135C478.67 134.6 478.67 134.2 478.67 133.6V17C478.67 9.59999 484.67 3.6 492.07 3.6C499.47 3.6 505.47 9.59999 505.47 17V120.2H561.07Z" fill="#76A4FF"/>
<path d="M699.314 107.8C699.314 107.8 699.314 107.8 699.314 108C699.314 119.4 694.914 130 686.714 137.8C680.114 144.2 668.114 151.8 647.314 151.8C646.514 151.8 645.914 151.8 645.114 151.8C644.914 151.8 644.914 151.8 644.914 151.8C621.914 151.2 605.714 142.6 593.114 134.2C586.914 130 585.114 121.8 589.114 115.6C593.314 109.4 601.514 107.6 607.714 111.8C617.914 118.4 629.314 124.4 645.714 125C646.314 125 646.714 125 647.314 125C656.714 125 663.714 122.8 668.114 118.6C671.714 115 672.514 110.8 672.514 108C672.514 108 672.514 108 672.514 107.8C672.514 104.4 672.314 95 639.114 88C638.914 88 638.914 88 638.914 88C626.514 85.4 617.314 82 609.914 77.2C594.514 67.2 591.514 54 591.714 44.6C592.314 14.8 612.314 0.999996 641.114 0.999996C643.114 0.999996 645.314 1.19999 647.714 1.39999H647.914C647.914 1.39999 647.914 1.39999 648.114 1.39999C658.914 2.19999 671.114 5.99999 685.314 13.4C691.914 16.8 694.514 25 691.114 31.6C687.714 38 679.514 40.6 672.914 37.2C662.314 31.8 653.314 28.6 646.314 28.2C645.514 28.2 644.914 28 644.314 28C626.714 27 620.114 31.6 619.114 39.4C618.314 46.4 618.314 56.2 644.514 61.8C660.914 65.2 672.514 69.6 681.114 75.4C696.114 85.4 699.314 98.6 699.314 107.8ZM833.569 3.99999C840.969 3.99999 846.969 9.99999 846.969 17.4V92.8C846.969 123.8 818.369 149.8 784.569 149.8C750.769 149.8 722.369 123.8 722.369 92.8V17.4C722.369 9.99999 728.369 3.99999 735.769 3.99999C743.169 3.99999 749.169 9.99999 749.169 17.4V92.8C749.169 109 765.569 123 784.569 123C802.569 123 820.169 109.4 820.169 92.8V17.4C820.169 9.99999 826.169 3.99999 833.569 3.99999Z" fill="#8365FF"/>
</svg>
