<svg width="1588" height="217" viewBox="0 0 1588 217" fill="none" xmlns="http://www.w3.org/2000/svg">
<path d="M697.2 177C689.8 177 683.8 171 683.8 163.6V161C683.8 153.6 689.8 147.6 697.2 147.6C704.6 147.6 710.6 153.6 710.6 161V163.6C710.6 171 704.6 177 697.2 177ZM862.425 152.6L866.825 157C872.025 162.2 872.025 170.6 866.825 176C864.225 178.6 860.825 179.8 857.425 179.8C854.025 179.8 850.425 178.6 847.825 176L842.425 170.6C830.625 178 816.825 182 802.425 182C782.225 182 763.225 174 748.825 159.6C734.425 145.4 726.625 126.2 726.625 106C726.625 85.6 734.425 66.6 748.825 52.2C750.625 50.4 752.625 48.6 754.625 47C757.225 44.8 759.825 43 762.625 41.2C763.625 40.6 764.425 40.2 765.425 39.6C767.625 38.4 770.025 37.2 772.625 36.2C773.625 35.6 774.425 35.4 775.425 35C776.825 34.4 778.225 34 779.625 33.4C781.825 32.8 784.225 32.2 786.425 31.6C787.425 31.4 788.225 31.4 789.225 31.2C793.625 30.4 798.025 30 802.425 30C807.425 30 812.225 30.4 817.025 31.4C823.425 32.6 829.625 34.6 835.625 37.6C843.025 41.2 850.025 46 856.225 52.2C870.625 66.6 878.425 85.6 878.425 106C878.425 123 872.825 139.2 862.425 152.6ZM843.225 133.4C856.225 114.2 854.225 88 837.225 71.2C827.625 61.6 815.025 56.8 802.425 56.8C790.025 56.8 777.425 61.6 767.825 71.2C758.425 80.4 753.425 92.8 753.425 106C753.425 119 758.425 131.4 767.825 140.6C782.625 155.6 804.625 158.8 822.625 150.8L801.825 129.8C796.625 124.6 796.625 116 801.825 110.8C807.025 105.6 815.625 105.6 820.825 110.8L843.225 133.4ZM1013.51 34C1020.91 34 1026.91 40 1026.91 47.4V122.8C1026.91 153.8 998.314 179.8 964.514 179.8C930.714 179.8 902.314 153.8 902.314 122.8V47.4C902.314 40 908.314 34 915.714 34C923.114 34 929.114 40 929.114 47.4V122.8C929.114 139 945.514 153 964.514 153C982.514 153 1000.11 139.4 1000.11 122.8V47.4C1000.11 40 1006.11 34 1013.51 34Z" fill="#C178FF"/>
<path d="M1183.6 157.6C1187 164.2 1184.4 172.2 1177.8 175.6C1171.2 179 1163 176.2 1159.8 169.6L1150.4 151.2H1074.4L1065 169.6C1062.8 174.4 1058 177 1053.2 177C1043.2 177 1036.6 166.4 1041.2 157.6L1100.4 40.8C1100.6 40.6 1100.6 40.4 1100.8 40.2C1100.8 40 1101 40 1101 39.8C1101.6 39 1102.2 38.2 1103 37.4C1103 37.2 1103.2 37.2 1103.4 37C1103.6 36.8 1103.8 36.6 1104 36.4C1104.2 36.4 1104.4 36.2 1104.6 36C1104.8 35.8 1105 35.8 1105.2 35.6C1106 35 1107 34.6 1108 34.2C1108.2 34.2 1108.2 34.2 1108.4 34.2C1108.6 34 1109 34 1109.2 33.8C1109.6 33.8 1109.8 33.8 1110 33.8C1110.2 33.6 1110.4 33.6 1110.6 33.6C1111.2 33.6 1111.8 33.6 1112.2 33.6C1112.4 33.4 1112.4 33.4 1112.4 33.4L1112.6 33.6C1113 33.6 1113.6 33.6 1114 33.6C1114 33.6 1114.2 33.6 1114.4 33.6C1114.8 33.8 1115.2 33.8 1115.8 34H1116C1116.4 34.2 1117 34.2 1117.4 34.4C1117.6 34.6 1117.8 34.6 1117.8 34.6C1118 34.8 1118.2 34.8 1118.4 35C1118.6 35 1118.8 35 1118.8 35.2C1119 35.2 1119.2 35.4 1119.2 35.4C1119.6 35.6 1120 35.8 1120.4 36.2C1122.2 37.6 1123.6 39.2 1124.6 41.2C1124.4 41.2 1124.4 41 1124.4 41L1183.6 157.6ZM1088.2 124.4H1136.6L1112.4 76.6L1088.2 124.4ZM1287.7 150.2C1295.1 150.2 1301.1 156.2 1301.1 163.6C1301.1 171 1295.1 177 1287.7 177H1218.7C1215.9 177 1213.3 176.2 1211.1 174.8C1207.9 172.6 1205.7 169.2 1205.3 165C1205.3 164.6 1205.3 164.2 1205.3 163.6V47C1205.3 39.6 1211.3 33.6 1218.7 33.6C1226.1 33.6 1232.1 39.6 1232.1 47V150.2H1287.7Z" fill="#76A4FF"/>
<path d="M1425.94 137.8C1425.94 137.8 1425.94 137.8 1425.94 138C1425.94 149.4 1421.54 160 1413.34 167.8C1406.74 174.2 1394.74 181.8 1373.94 181.8C1373.14 181.8 1372.54 181.8 1371.74 181.8C1371.54 181.8 1371.54 181.8 1371.54 181.8C1348.54 181.2 1332.34 172.6 1319.74 164.2C1313.54 160 1311.74 151.8 1315.74 145.6C1319.94 139.4 1328.14 137.6 1334.34 141.8C1344.54 148.4 1355.94 154.4 1372.34 155C1372.94 155 1373.34 155 1373.94 155C1383.34 155 1390.34 152.8 1394.74 148.6C1398.34 145 1399.14 140.8 1399.14 138C1399.14 138 1399.14 138 1399.14 137.8C1399.14 134.4 1398.94 125 1365.74 118C1365.54 118 1365.54 118 1365.54 118C1353.14 115.4 1343.94 112 1336.54 107.2C1321.14 97.2 1318.14 84 1318.34 74.6C1318.94 44.8 1338.94 31 1367.74 31C1369.74 31 1371.94 31.2 1374.34 31.4H1374.54C1374.54 31.4 1374.54 31.4 1374.74 31.4C1385.54 32.2 1397.74 36 1411.94 43.4C1418.54 46.8 1421.14 55 1417.74 61.6C1414.34 68 1406.14 70.6 1399.54 67.2C1388.94 61.8 1379.94 58.6 1372.94 58.2C1372.14 58.2 1371.54 58 1370.94 58C1353.34 57 1346.74 61.6 1345.74 69.4C1344.94 76.4 1344.94 86.2 1371.14 91.8C1387.54 95.2 1399.14 99.6 1407.74 105.4C1422.74 115.4 1425.94 128.6 1425.94 137.8ZM1560.19 34C1567.59 34 1573.59 40 1573.59 47.4V122.8C1573.59 153.8 1544.99 179.8 1511.19 179.8C1477.39 179.8 1448.99 153.8 1448.99 122.8V47.4C1448.99 40 1454.99 34 1462.39 34C1469.79 34 1475.79 40 1475.79 47.4V122.8C1475.79 139 1492.19 153 1511.19 153C1529.19 153 1546.79 139.4 1546.79 122.8V47.4C1546.79 40 1552.79 34 1560.19 34Z" fill="#8365FF"/>
<rect width="677" height="217" rx="40" fill="#2D1229"/>
<path d="M119.214 132.64C119.214 132.64 119.214 132.64 119.214 132.8C119.214 141.92 115.694 150.4 109.134 156.64C103.854 161.76 94.2538 167.84 77.6138 167.84C76.9738 167.84 76.4938 167.84 75.8538 167.84C75.6938 167.84 75.6938 167.84 75.6938 167.84C57.2938 167.36 44.3338 160.48 34.2538 153.76C29.2938 150.4 27.8538 143.84 31.0538 138.88C34.4138 133.92 40.9738 132.48 45.9338 135.84C54.0938 141.12 63.2137 145.92 76.3338 146.4C76.8138 146.4 77.1338 146.4 77.6138 146.4C85.1338 146.4 90.7338 144.64 94.2538 141.28C97.1338 138.4 97.7738 135.04 97.7738 132.8C97.7738 132.8 97.7738 132.8 97.7738 132.64C97.7738 129.92 97.6138 122.4 71.0538 116.8C70.8938 116.8 70.8938 116.8 70.8938 116.8C60.9738 114.72 53.6138 112 47.6938 108.16C35.3738 100.16 32.9738 89.6 33.1338 82.08C33.6138 58.24 49.6138 47.2 72.6538 47.2C74.2538 47.2 76.0138 47.36 77.9338 47.52H78.0938C78.0938 47.52 78.0938 47.52 78.2538 47.52C86.8938 48.16 96.6538 51.2 108.014 57.12C113.294 59.84 115.374 66.4 112.654 71.68C109.934 76.8 103.374 78.88 98.0938 76.16C89.6138 71.84 82.4138 69.28 76.8138 68.96C76.1738 68.96 75.6938 68.8 75.2138 68.8C61.1338 68 55.8538 71.68 55.0538 77.92C54.4138 83.52 54.4138 91.36 75.3738 95.84C88.4938 98.56 97.7738 102.08 104.654 106.72C116.654 114.72 119.214 125.28 119.214 132.64ZM217.52 49.28C223.44 49.28 228.24 54.08 228.24 60C228.24 65.92 223.44 70.72 217.52 70.72H189.04V153.28C189.04 159.2 184.24 164 178.32 164C172.4 164 167.6 159.2 167.6 153.28V70.72H139.28C133.36 70.72 128.56 65.92 128.56 60C128.56 54.08 133.36 49.28 139.28 49.28H217.52ZM334.248 148.48C336.968 153.76 334.888 160.16 329.608 162.88C324.328 165.6 317.768 163.36 315.208 158.08L307.688 143.36H246.888L239.368 158.08C237.608 161.92 233.768 164 229.928 164C221.928 164 216.648 155.52 220.328 148.48L267.688 55.04C267.848 54.88 267.848 54.72 268.008 54.56C268.008 54.4 268.168 54.4 268.168 54.24C268.648 53.6 269.128 52.96 269.768 52.32C269.768 52.16 269.928 52.16 270.088 52C270.248 51.84 270.408 51.68 270.568 51.52C270.728 51.52 270.888 51.36 271.048 51.2C271.208 51.04 271.368 51.04 271.528 50.88C272.168 50.4 272.968 50.08 273.768 49.76C273.928 49.76 273.928 49.76 274.088 49.76C274.248 49.6 274.568 49.6 274.728 49.44C275.048 49.44 275.208 49.44 275.368 49.44C275.528 49.28 275.688 49.28 275.848 49.28C276.328 49.28 276.808 49.28 277.128 49.28C277.288 49.12 277.288 49.12 277.288 49.12L277.448 49.28C277.768 49.28 278.248 49.28 278.568 49.28C278.568 49.28 278.728 49.28 278.888 49.28C279.208 49.44 279.528 49.44 280.008 49.6H280.168C280.488 49.76 280.968 49.76 281.288 49.92C281.448 50.08 281.608 50.08 281.608 50.08C281.768 50.24 281.928 50.24 282.088 50.4C282.248 50.4 282.408 50.4 282.408 50.56C282.568 50.56 282.728 50.72 282.728 50.72C283.048 50.88 283.368 51.04 283.688 51.36C285.128 52.48 286.248 53.76 287.048 55.36C286.888 55.36 286.888 55.2 286.888 55.2L334.248 148.48ZM257.927 121.92H296.648L277.288 83.68L257.927 121.92ZM415.333 49.28C421.253 49.28 426.053 54.08 426.053 60C426.053 65.92 421.253 70.72 415.333 70.72H386.853V153.28C386.853 159.2 382.053 164 376.133 164C370.213 164 365.413 159.2 365.413 153.28V70.72H337.093C331.173 70.72 326.373 65.92 326.373 60C326.373 54.08 331.173 49.28 337.093 49.28H415.333ZM528.493 49.6C534.413 49.6 539.213 54.4 539.213 60.32V120.64C539.213 145.44 516.333 166.24 489.293 166.24C462.253 166.24 439.533 145.44 439.533 120.64V60.32C439.533 54.4 444.333 49.6 450.253 49.6C456.173 49.6 460.973 54.4 460.973 60.32V120.64C460.973 133.6 474.093 144.8 489.293 144.8C503.693 144.8 517.773 133.92 517.773 120.64V60.32C517.773 54.4 522.573 49.6 528.493 49.6ZM647.183 132.64C647.183 132.64 647.183 132.64 647.183 132.8C647.183 141.92 643.663 150.4 637.103 156.64C631.823 161.76 622.223 167.84 605.583 167.84C604.943 167.84 604.463 167.84 603.823 167.84C603.663 167.84 603.663 167.84 603.663 167.84C585.263 167.36 572.303 160.48 562.223 153.76C557.263 150.4 555.823 143.84 559.023 138.88C562.383 133.92 568.943 132.48 573.903 135.84C582.063 141.12 591.182 145.92 604.303 146.4C604.783 146.4 605.103 146.4 605.583 146.4C613.103 146.4 618.703 144.64 622.223 141.28C625.103 138.4 625.743 135.04 625.743 132.8C625.743 132.8 625.743 132.8 625.743 132.64C625.743 129.92 625.583 122.4 599.023 116.8C598.863 116.8 598.863 116.8 598.863 116.8C588.943 114.72 581.583 112 575.663 108.16C563.343 100.16 560.943 89.6 561.103 82.08C561.583 58.24 577.583 47.2 600.623 47.2C602.223 47.2 603.983 47.36 605.903 47.52H606.063C606.063 47.52 606.063 47.52 606.223 47.52C614.863 48.16 624.623 51.2 635.983 57.12C641.263 59.84 643.343 66.4 640.623 71.68C637.903 76.8 631.343 78.88 626.063 76.16C617.583 71.84 610.383 69.28 604.783 68.96C604.143 68.96 603.663 68.8 603.183 68.8C589.103 68 583.823 71.68 583.023 77.92C582.383 83.52 582.383 91.36 603.343 95.84C616.463 98.56 625.743 102.08 632.623 106.72C644.623 114.72 647.183 125.28 647.183 132.64Z" fill="#8365FF"/>
</svg>
