<svg width="611" height="611" viewBox="0 0 611 611" fill="none" xmlns="http://www.w3.org/2000/svg">
<path fill-rule="evenodd" clip-rule="evenodd" d="M305.5 611C474.223 611 611 474.223 611 305.5C611 136.777 474.223 0 305.5 0C136.777 0 0 136.777 0 305.5C0 474.223 136.777 611 305.5 611ZM300.937 228.887C306.795 234.745 316.293 234.745 322.151 228.887L417.644 133.394C423.502 127.536 432.999 127.536 438.857 133.394L483.694 178.231C489.552 184.089 489.552 193.586 483.694 199.444L388.201 294.937C382.343 300.795 382.343 310.293 388.201 316.151L483.694 411.644C489.552 417.502 489.552 426.999 483.694 432.857L438.857 477.694C432.999 483.552 423.502 483.552 417.644 477.694L322.151 382.201C316.293 376.343 306.795 376.343 300.937 382.201L205.443 477.695C199.586 483.552 190.088 483.552 184.23 477.695L139.393 432.858C133.536 427 133.536 417.503 139.393 411.645L234.887 316.151C240.745 310.293 240.745 300.795 234.887 294.937L139.393 199.443C133.536 193.586 133.536 184.088 139.393 178.23L184.23 133.393C190.088 127.536 199.585 127.536 205.443 133.393L300.937 228.887Z" fill="#FF6D6D"/>
</svg>
