<svg width="611" height="611" viewBox="0 0 611 611" fill="none" xmlns="http://www.w3.org/2000/svg">
<path fill-rule="evenodd" clip-rule="evenodd" d="M305.5 611C474.223 611 611 474.223 611 305.5C611 136.777 474.223 0 305.5 0C136.777 0 0 136.777 0 305.5C0 474.223 136.777 611 305.5 611ZM272.199 330C272.199 348.5 287.199 363.5 305.699 363.5C324.199 363.5 339.199 348.5 339.199 330V148.5C339.199 130 324.199 115 305.699 115C287.199 115 272.199 130 272.199 148.5V330ZM272.199 440.5C272.199 459 287.199 474 305.699 474C324.199 474 339.199 459 339.199 440.5V434C339.199 415.5 324.199 400.5 305.699 400.5C287.199 400.5 272.199 415.5 272.199 434V440.5Z" fill="#FF6D6D"/>
</svg>
