<svg width="611" height="611" viewBox="0 0 611 611" fill="none" xmlns="http://www.w3.org/2000/svg">
<path fill-rule="evenodd" clip-rule="evenodd" d="M305.5 611C474.223 611 611 474.223 611 305.5C611 136.777 474.223 0 305.5 0C136.777 0 0 136.777 0 305.5C0 474.223 136.777 611 305.5 611ZM170.156 415.5C170.156 434 185.156 449 203.656 449C222.156 449 237.156 434 237.156 415.5V409C237.156 390.5 222.156 375.5 203.656 375.5C185.156 375.5 170.156 390.5 170.156 409V415.5ZM271.719 415.5C271.719 434 286.719 449 305.219 449C323.719 449 338.719 434 338.719 415.5V409C338.719 390.5 323.719 375.5 305.219 375.5C286.719 375.5 271.719 390.5 271.719 409V415.5ZM373.281 415.5C373.281 434 388.281 449 406.781 449C425.281 449 440.281 434 440.281 415.5V409C440.281 390.5 425.281 375.5 406.781 375.5C388.281 375.5 373.281 390.5 373.281 409V415.5Z" fill="#5F5F5F"/>
</svg>
