<svg width="611" height="611" viewBox="0 0 611 611" fill="none" xmlns="http://www.w3.org/2000/svg">
<path fill-rule="evenodd" clip-rule="evenodd" d="M305.5 611C474.223 611 611 474.223 611 305.5C611 136.777 474.223 0 305.5 0C136.777 0 0 136.777 0 305.5C0 474.223 136.777 611 305.5 611ZM230.997 444.36C236.858 450.232 246.372 450.232 252.233 444.36L478.427 217.684C484.27 211.828 484.27 202.348 478.427 196.493L448.638 166.641C442.778 160.768 433.263 160.768 427.402 166.641L252.233 342.183C246.373 348.056 236.858 348.056 230.997 342.183L183.598 294.682C177.737 288.809 168.222 288.809 162.362 294.682L132.573 324.535C126.73 330.391 126.73 339.871 132.573 345.726L230.997 444.36Z" fill="#88FF6D"/>
</svg>
